<?xml version="1.0" ?><!DOCTYPE svg  PUBLIC '-//W3C//DTD SVG 1.1//EN'  'http://www.w3.org/Graphics/SVG/1.1/DTD/svg11.dtd'><svg height="32px" id="Layer_1" style="enable-background:new 0 0 32 32;" version="1.1" viewBox="0 0 32 32" width="32px" xml:space="preserve" xmlns="http://www.w3.org/2000/svg" xmlns:xlink="http://www.w3.org/1999/xlink"><path d="M30.938,16L18,1.188C17.453,0.594,16.938,0,16,0s-1.453,0.594-2,1.188l-6,6.87V4c0-1.104-0.896-2-2-2S4,2.896,4,4v8.637  L1.063,16C0.406,16.734,0,17.188,0,18c0,1.016,0.797,2,2,2h2v10c0,1.1,0.9,2,2,2h20c1.1,0,2-0.9,2-2V20h2c1.203,0,2-0.984,2-2  C32,17.188,31.594,16.734,30.938,16z M24,16v12h-4v-8h-8v8H8V16H6.373L16,4.979L25.627,16H24z"/></svg>