<?xml version="1.0" ?><!DOCTYPE svg  PUBLIC '-//W3C//DTD SVG 1.1//EN'  'http://www.w3.org/Graphics/SVG/1.1/DTD/svg11.dtd'><svg height="32px" id="Layer_1" style="enable-background:new 0 0 32 32;" version="1.1" viewBox="0 0 32 32" width="32px" xml:space="preserve" xmlns="http://www.w3.org/2000/svg" xmlns:xlink="http://www.w3.org/1999/xlink"><path d="M10,8c0,0.531,0.193,0.994,0.58,1.38l3.973,3.974C14.92,13.721,15.271,14,16,14s1.135-0.334,1.463-0.662L21.42,9.38  C21.807,8.994,22,8.531,22,8c0-1.188-1.016-2-2-2c-0.516,0-0.986,0.186-1.38,0.58L18,7.2V2c0-1.104-0.896-2-2-2s-2,0.896-2,2v5.2  l-0.62-0.62C12.986,6.186,12.516,6,12,6C11.016,6,10,6.813,10,8z M22,26c1.104,0,2-0.896,2-2s-0.896-2-2-2s-2,0.896-2,2  S20.896,26,22,26z M29.438,16L26,5.703C25.578,4.078,24.375,4,24,4h-4c2.205,0,4,1.794,4,4c0,0.821-0.244,1.581-0.702,2.235  L25.219,16H6.781l1.921-5.765C8.244,9.581,8,8.822,8,8c0-2.206,1.794-4,4-4H8C7.625,4,6.422,4.078,6,5.703L2.563,16  C2.172,17.047,2,17.688,2,18v12c0,1.094,0.875,2,2,2h24c1.125,0,2-0.906,2-2V18C30,17.688,29.828,17.047,29.438,16z M26,28H6v-8h20  V28z"/></svg>