<?xml version="1.0" ?><svg height="512" id="svg2" version="1.1" width="512" xmlns="http://www.w3.org/2000/svg" xmlns:cc="http://creativecommons.org/ns#" xmlns:dc="http://purl.org/dc/elements/1.1/" xmlns:inkscape="http://www.inkscape.org/namespaces/inkscape" xmlns:rdf="http://www.w3.org/1999/02/22-rdf-syntax-ns#" xmlns:sodipodi="http://sodipodi.sourceforge.net/DTD/sodipodi-0.dtd" xmlns:svg="http://www.w3.org/2000/svg"><defs id="defs4"/><g id="layer1" transform="translate(0,-540.36218)"><g id="g3016" transform="matrix(-1,0,0,1,502.69953,6.6120369e-6)"/><g id="g2997" transform="matrix(0.70710678,-0.70710678,0.70710678,0.70710678,-494.2644,414.26611)"><path d="M 246.59375 40.15625 C 188.06904 41.060068 132.78227 65.9619 93.21875 107.59375 C 69.240858 132.82517 51.032342 164.19995 41.40625 200.125 L 70.40625 207.90625 C 97.013441 108.60686 198.66936 49.924059 297.96875 76.53125 C 356.07298 92.100236 402.66813 134.67703 423.6875 190.40625 L 398.75 190.40625 L 439.25 280.9375 L 479.78125 190.40625 L 455.46875 190.40625 C 433.18727 120.53 376.83887 66.579457 305.75 47.53125 C 285.99123 42.236903 266.10199 39.854977 246.59375 40.15625 z " id="path2995" style="fill:#000000;stroke:none" transform="matrix(0.70710678,0.70710678,-0.70710678,0.70710678,260.33432,438.6611)"/><path d="M 47.9375 263 L 32.21875 360.96875 L 57.65625 354.15625 C 82.11049 402.05516 123.66654 439.23218 174.28125 458.15625 C 285.75976 499.83636 410.35117 443.04104 452.03125 331.5625 L 423.9375 321.0625 C 387.93538 417.35455 281.10455 466.06462 184.8125 430.0625 C 143.2511 414.52333 108.80691 384.68051 87.4375 346.1875 L 110.5 340 L 47.9375 263 z " id="path3036" style="fill:#000000;stroke:none" transform="matrix(0.70710678,0.70710678,-0.70710678,0.70710678,260.33432,438.6611)"/></g></g></svg>