<?xml version="1.0" encoding="iso-8859-1"?>
<!-- Generator: Adobe Illustrator 18.1.1, SVG Export Plug-In . SVG Version: 6.00 Build 0)  -->
<svg version="1.1" id="Capa_1" xmlns="http://www.w3.org/2000/svg" xmlns:xlink="http://www.w3.org/1999/xlink" x="0px" y="0px"
	 viewBox="0 0 80.142 80.142" style="enable-background:new 0 0 80.142 80.142;" xml:space="preserve">
<g>
	<path style="fill:#030104;" d="M38.815,40.071c0,1.272-1.271,2.181-1.271,2.181l-32.8,22.541C2.137,66.533,0,65.252,0,61.949
		V18.191c0-3.302,2.137-4.582,4.744-2.843l32.8,22.541C37.544,37.889,38.815,38.799,38.815,40.071z M78.869,37.889l-33.98-22.541
		c-2.607-1.738-4.746-0.459-4.746,2.843v43.758c0,3.303,2.138,4.584,4.746,2.844l33.98-22.541c0,0,1.273-0.909,1.273-2.181
		S78.869,37.889,78.869,37.889z"/>
</g>
<g>
</g>
<g>
</g>
<g>
</g>
<g>
</g>
<g>
</g>
<g>
</g>
<g>
</g>
<g>
</g>
<g>
</g>
<g>
</g>
<g>
</g>
<g>
</g>
<g>
</g>
<g>
</g>
<g>
</g>
</svg>
