<?xml version="1.0" encoding="iso-8859-1"?>
<!-- Generator: Adobe Illustrator 18.1.1, SVG Export Plug-In . SVG Version: 6.00 Build 0)  -->
<svg version="1.1" id="Capa_1" xmlns="http://www.w3.org/2000/svg" xmlns:xlink="http://www.w3.org/1999/xlink" x="0px" y="0px"
	 viewBox="0 0 95.701 95.701" style="enable-background:new 0 0 95.701 95.701;" xml:space="preserve">
<g>
	<path style="fill:#030104;" d="M31.373,11.5l0.003,59.334c-3.231-0.673-6.99-0.42-10.718,0.963
		c-8.387,3.116-11.346,10.696-9.122,16.926c2.224,6.235,8.784,8.758,17.171,5.643c7.123-2.646,11.784-8.51,11.669-14.035
		c0,0,0-31.465,0-49.013l35.5-8.136v37.653c-3.231-0.673-6.99-0.42-10.718,0.963c-8.387,3.115-11.346,10.696-9.122,16.926
		c2.224,6.235,8.784,8.758,17.171,5.643c7.123-2.646,11.784-8.51,11.669-14.035V0L31.373,11.5z"/>
</g>
<g>
</g>
<g>
</g>
<g>
</g>
<g>
</g>
<g>
</g>
<g>
</g>
<g>
</g>
<g>
</g>
<g>
</g>
<g>
</g>
<g>
</g>
<g>
</g>
<g>
</g>
<g>
</g>
<g>
</g>
</svg>
