<?xml version="1.0" encoding="iso-8859-1"?>
<!-- Generator: Adobe Illustrator 18.1.1, SVG Export Plug-In . SVG Version: 6.00 Build 0)  -->
<svg version="1.1" id="Capa_1" xmlns="http://www.w3.org/2000/svg" xmlns:xlink="http://www.w3.org/1999/xlink" x="0px" y="0px"
	 viewBox="0 0 70 70" style="enable-background:new 0 0 70 70;" xml:space="preserve">
<g>
	<path style="fill:#030104;" d="M10,50H5c-2.762,0-5,2.238-5,5s2.238,5,5,5h5c2.762,0,5-2.238,5-5S12.762,50,10,50z M10,30H5
		c-2.762,0-5,2.238-5,5s2.238,5,5,5h5c2.762,0,5-2.238,5-5S12.762,30,10,30z M10,10H5c-2.762,0-5,2.238-5,5s2.238,5,5,5h5
		c2.762,0,5-2.238,5-5S12.762,10,10,10z M30,20h35c2.762,0,5-2.238,5-5s-2.238-5-5-5H30c-2.762,0-5,2.238-5,5S27.238,20,30,20z
		 M65,30H30c-2.762,0-5,2.238-5,5s2.238,5,5,5h35c2.762,0,5-2.238,5-5S67.762,30,65,30z M65,50H30c-2.762,0-5,2.238-5,5s2.238,5,5,5
		h35c2.762,0,5-2.238,5-5S67.762,50,65,50z"/>
</g>
<g>
</g>
<g>
</g>
<g>
</g>
<g>
</g>
<g>
</g>
<g>
</g>
<g>
</g>
<g>
</g>
<g>
</g>
<g>
</g>
<g>
</g>
<g>
</g>
<g>
</g>
<g>
</g>
<g>
</g>
</svg>
