<?xml version="1.0" encoding="iso-8859-1"?>
<!-- Generator: Adobe Illustrator 18.1.1, SVG Export Plug-In . SVG Version: 6.00 Build 0)  -->
<svg version="1.1" id="Capa_1" xmlns="http://www.w3.org/2000/svg" xmlns:xlink="http://www.w3.org/1999/xlink" x="0px" y="0px"
	 viewBox="0 0 100 100" style="enable-background:new 0 0 100 100;" xml:space="preserve">
<g>
	<path style="fill:#030104;" d="M40,50c0,2.762-2.238,5-5,5H5c-2.762,0-5-2.238-5-5s2.238-5,5-5h30C37.762,45,40,47.238,40,50z
		 M35,65H5c-2.762,0-5,2.238-5,5s2.238,5,5,5h30c2.762,0,5-2.238,5-5S37.762,65,35,65z M97,45H80V28c0-2.762-2.238-3-5-3
		s-5,0.238-5,3v17H53.5c-2.762,0-3,2.238-3,5s0.238,5,3,5H70v17c0,2.762,2.238,3,5,3s5-0.238,5-3V55h17c2.762,0,3-2.238,3-5
		S99.762,45,97,45z M35,25H5c-2.762,0-5,2.238-5,5s2.238,5,5,5h30c2.762,0,5-2.238,5-5S37.762,25,35,25z"/>
</g>
<g>
</g>
<g>
</g>
<g>
</g>
<g>
</g>
<g>
</g>
<g>
</g>
<g>
</g>
<g>
</g>
<g>
</g>
<g>
</g>
<g>
</g>
<g>
</g>
<g>
</g>
<g>
</g>
<g>
</g>
</svg>
