<?xml version="1.0" ?><!DOCTYPE svg  PUBLIC '-//W3C//DTD SVG 1.1//EN'  'http://www.w3.org/Graphics/SVG/1.1/DTD/svg11.dtd'><svg enable-background="new 0 0 64 64" height="64px" id="BACK" version="1.1" viewBox="0 0 64 64" width="64px" xml:space="preserve" xmlns="http://www.w3.org/2000/svg" xmlns:xlink="http://www.w3.org/1999/xlink"><path d="M32,5c14.888,0,27,12.112,27,27S46.888,59,32,59S5,46.888,5,32S17.112,5,32,5 M32,2C15.433,2,2,15.432,2,32  c0,16.568,13.433,30,30,30s30-13.432,30-30C62,15.432,48.567,2,32,2L32,2z"/><path d="M16.021,35.325l11.959,7.826c2.762,1.808,5.02,0.586,5.02-2.714V37.93l7.98,5.222c2.762,1.808,5.02,0.586,5.02-2.714V23.563  c0-3.3-2.256-4.516-5.012-2.702L33,26.117v-2.555c0-3.3-2.256-4.516-5.012-2.702l-11.977,7.881  C13.256,30.555,13.259,33.518,16.021,35.325z M18.139,30.933l10.191-6.705c0.918-0.604,1.67-0.199,1.67,0.9v4.554  c0,1.1,0.752,1.505,1.672,0.9l9.658-6.354c0.918-0.604,1.67-0.199,1.67,0.9v13.761c0,1.1-0.752,1.507-1.674,0.905l-9.652-6.318  C30.754,32.874,30,33.281,30,34.381v4.508c0,1.1-0.752,1.507-1.674,0.904l-10.184-6.665C17.221,32.525,17.221,31.537,18.139,30.933z  "/></svg>