<?xml version="1.0" encoding="iso-8859-1"?>
<!-- Generator: Adobe Illustrator 18.1.1, SVG Export Plug-In . SVG Version: 6.00 Build 0)  -->
<svg version="1.1" id="Capa_1" xmlns="http://www.w3.org/2000/svg" xmlns:xlink="http://www.w3.org/1999/xlink" x="0px" y="0px"
	 viewBox="0 0 100 100" style="enable-background:new 0 0 100 100;" xml:space="preserve">
<g>
	<path style="fill:#030104;" d="M75.466,33.469H79v10.063l21-18l-21-18v11.937h-3.534c-18.469,0-28.883,13.687-38.07,25.762
		c-8.264,10.859-15.398,20.238-26.93,20.238H0v14h10.466c18.471,0,28.883-13.686,38.072-25.762
		C56.8,42.847,63.937,33.469,75.466,33.469z M27.056,42.289c0.786-1.019,1.58-2.061,2.382-3.114c1.953-2.567,4.02-5.279,6.256-7.979
		C29.09,25.025,21.12,20.468,10.466,20.468H0v14h10.466C17.102,34.469,22.279,37.584,27.056,42.289z M79,66.469h-3.534
		c-7.036,0-12.435-3.503-17.453-8.694c-0.503,0.657-1.008,1.319-1.516,1.987c-2.205,2.898-4.577,6.008-7.194,9.085
		c6.785,6.621,15.002,11.622,26.163,11.622H79v12l21-18l-21-18V66.469z"/>
</g>
<g>
</g>
<g>
</g>
<g>
</g>
<g>
</g>
<g>
</g>
<g>
</g>
<g>
</g>
<g>
</g>
<g>
</g>
<g>
</g>
<g>
</g>
<g>
</g>
<g>
</g>
<g>
</g>
<g>
</g>
</svg>
